<svg version="1.1" id="Layer_1" xmlns="http://www.w3.org/2000/svg" xmlns:xlink="http://www.w3.org/1999/xlink" x="0px" y="0px"
	 width="100%" viewBox="0 0 576 1024" enable-background="new 0 0 576 1024" xml:space="preserve">
<path fill="#000000" opacity="1.000000" stroke="none" 
	d="
M305.070404,593.904541 
	C300.263550,606.442322 295.589142,618.614624 290.926727,630.755676 
	C288.339539,629.988770 288.106323,628.451477 287.583557,627.073364 
	C276.956818,599.059143 266.224426,571.084412 255.754501,543.011841 
	C253.898804,538.036255 251.012665,533.897583 247.863739,529.816345 
	C234.839920,512.936523 221.717468,496.132080 208.794693,479.175354 
	C201.150726,469.145264 194.628372,458.549042 194.652466,445.265045 
	C194.667969,436.726318 197.946945,429.540894 204.510620,424.297455 
	C215.174026,415.778870 227.263519,410.567688 241.200516,410.673462 
	C256.158875,410.787018 269.295746,406.154816 280.102356,395.619019 
	C280.544342,396.135406 280.948578,396.441040 280.898224,396.572601 
	C276.682495,407.585968 270.891174,417.576721 261.773834,425.311310 
	C258.360199,428.207275 254.404022,429.635986 249.797638,429.405609 
	C244.077881,429.119537 238.513947,430.225281 233.200302,432.319794 
	C224.253525,435.846405 221.233780,442.415527 224.177521,451.549011 
	C225.887146,456.853363 228.738571,461.529480 232.111343,465.900970 
	C244.422867,481.858276 256.314453,498.171631 269.290039,513.570740 
	C275.589325,521.046570 276.057007,529.492615 277.290741,538.074402 
	C281.464233,567.104553 285.502960,596.154053 290.353302,625.211609 
	C292.114929,612.984375 293.908203,600.761536 295.631287,588.528870 
	C298.688507,566.824585 301.720795,545.116699 304.711761,523.403198 
	C305.055267,520.909607 306.614044,519.179565 308.021362,517.359558 
	C320.553040,501.152710 333.145050,484.992523 345.673798,468.783417 
	C349.954315,463.245453 354.156799,457.655060 356.089447,450.730438 
	C358.422333,442.371826 355.765533,436.322052 347.899963,432.724487 
	C342.834259,430.407501 337.384155,429.132690 331.899689,429.456573 
	C324.929047,429.868225 319.620300,427.147522 315.015015,422.411926 
	C308.060699,415.260803 303.357422,406.655823 299.263763,397.674530 
	C298.993256,397.081055 298.758545,396.415588 299.729095,395.514404 
	C302.040344,397.431671 304.291565,399.577454 306.811249,401.339417 
	C315.968231,407.742737 326.281891,410.816895 337.367401,410.593262 
	C350.805054,410.322205 362.529694,414.995575 373.230957,422.437714 
	C385.207825,430.766937 388.389740,444.533386 382.524567,459.938385 
	C379.646179,467.498535 375.159454,474.090973 370.256256,480.440460 
	C356.313629,498.495544 342.361328,516.543274 328.482697,534.647461 
	C327.187347,536.337219 326.157257,538.318848 325.393890,540.314087 
	C318.613556,558.036621 311.921173,575.792786 305.070404,593.904541 
z"/>
<path fill="#000000" opacity="1.000000" stroke="none" 
	d="
M398.531738,459.536926 
	C402.827667,451.743500 406.036438,444.018280 407.172394,435.411713 
	C407.761322,430.949493 406.937988,426.818451 406.165131,422.598785 
	C405.768616,420.433777 405.454956,418.399658 406.314911,416.254791 
	C412.601196,400.575775 437.316925,389.281342 453.791748,394.645752 
	C453.647064,396.604126 451.849274,396.701050 450.632477,397.324707 
	C443.499695,400.980652 436.635223,405.066315 430.666107,410.447144 
	C424.090759,416.374420 423.628510,420.055603 428.115356,427.468719 
	C429.711761,430.106293 429.319244,432.872589 428.787659,435.691925 
	C426.005920,450.444336 416.701141,461.025421 406.063416,470.572968 
	C395.870361,479.721375 384.364441,487.083832 372.362152,493.655823 
	C371.668610,494.035583 370.888458,494.257294 369.731140,494.131439 
	C380.186401,483.409546 390.689056,472.798737 398.531738,459.536926 
z"/>
<path fill="#000000" opacity="1.000000" stroke="none" 
	d="
M150.503082,428.090302 
	C155.628464,421.512665 155.699463,418.960968 150.567627,412.929657 
	C144.951019,406.328674 137.385254,402.365692 129.979370,398.212738 
	C128.339096,397.292938 126.340034,396.771973 124.785500,394.289642 
	C136.280502,392.605743 146.518143,393.963043 156.163422,399.070709 
	C160.605515,401.423004 164.396118,404.624969 167.653427,408.526917 
	C171.904694,413.619507 173.981934,418.754547 172.436142,425.824646 
	C169.367523,439.860016 175.660355,451.846893 182.833618,463.215240 
	C189.258606,473.397705 197.365616,482.237244 206.245560,490.366638 
	C207.375992,491.401550 209.188385,492.044250 209.095398,494.050690 
	C208.187561,494.705536 207.427872,494.258667 206.727142,493.852020 
	C191.720016,485.143402 177.116791,475.874176 165.244263,462.971008 
	C157.932587,455.024689 152.101395,446.231567 150.165283,435.323578 
	C149.753601,433.004150 149.461777,430.718597 150.503082,428.090302 
z"/>
<path fill="#000000" opacity="1.000000" stroke="none" 
	d="
M351.007141,531.990540 
	C345.885162,538.871460 342.116455,546.197388 337.557037,553.175537 
	C337.198364,544.368896 334.499939,535.763306 342.000183,527.987366 
	C349.831055,519.868713 356.341187,510.475708 363.419739,501.632629 
	C364.239197,500.608887 364.855438,499.375397 366.300171,499.062866 
	C369.191803,506.738953 367.503815,514.644531 361.910583,519.841797 
	C357.997131,523.478149 354.373535,527.381592 351.007141,531.990540 
z"/>
<path fill="#000000" opacity="1.000000" stroke="none" 
	d="
M233.637848,540.331909 
	C228.707397,532.336304 223.377777,525.072571 216.385330,519.308716 
	C212.822403,516.371765 211.143646,513.130249 211.658615,508.572021 
	C212.007370,505.484985 211.172455,502.310150 212.134903,499.188263 
	C214.279953,499.201172 214.943024,500.913116 215.935303,502.139587 
	C223.260239,511.193451 230.422684,520.383423 237.929596,529.283203 
	C241.113953,533.058411 242.981079,536.886536 242.387222,541.913574 
	C241.930099,545.783264 242.796158,549.760193 241.623550,554.891296 
	C238.662292,549.484741 236.241455,545.064880 233.637848,540.331909 
z"/>
<path fill="#000000" opacity="1.000000" stroke="none" 
	d="
M161.137817,633.245728 
	C156.745239,630.608643 159.309875,626.996460 158.833847,623.066895 
	C164.515045,625.062073 167.684860,629.398499 172.874985,632.713379 
	C168.414322,633.874695 164.972687,633.155212 161.137817,633.245728 
z"/>
<path fill="#000000" opacity="1.000000" stroke="none" 
	d="
M419.447052,623.671143 
	C421.466949,633.554443 420.199219,634.538818 407.025726,632.790405 
	C411.206390,629.166199 414.440002,625.519836 419.447052,623.671143 
z"/>
</svg>