<?xml version="1.0" encoding="UTF-8"?>
<svg version="1.1" xmlns="http://www.w3.org/2000/svg" width="576" height="1024">
<path d="M0 0 C1.19842781 -0.01058945 1.19842781 -0.01058945 2.42106628 -0.02139282 C35.46261151 -0.24716505 35.46261151 -0.24716505 50.29296875 3.203125 C51.18757812 3.40180176 52.0821875 3.60047852 53.00390625 3.80517578 C104.42220319 15.4317724 149.09824004 46.29965598 177.59936523 90.73413086 C195.02853705 118.73726726 207.20774622 151.83899947 207.53125 185.109375 C207.54104385 185.9433783 207.55083771 186.77738159 207.56092834 187.63665771 C207.73045145 205.81856498 207.6664662 223.43953606 203.29296875 241.203125 C202.97150879 242.54528076 202.97150879 242.54528076 202.64355469 243.91455078 C190.3281907 294.02750569 158.28915035 337.66297077 114.54296875 364.890625 C86.70524102 381.65745829 54.36011181 393.21216361 21.5859375 393.40625 C20.78698563 393.41330963 19.98803375 393.42036926 19.16487122 393.42764282 C-13.87667401 393.65341505 -13.87667401 393.65341505 -28.70703125 390.203125 C-29.60164062 390.00444824 -30.49625 389.80577148 -31.41796875 389.60107422 C-82.83626569 377.9744776 -127.51230254 347.10659402 -156.01342773 302.67211914 C-173.44267677 274.66885866 -185.62158657 241.56734529 -185.9453125 208.296875 C-185.95515167 207.46300766 -185.96499084 206.62914032 -185.97512817 205.77000427 C-186.1452741 187.60265682 -186.146558 169.93920743 -181.70703125 152.203125 C-181.46033691 151.20587402 -181.21364258 150.20862305 -180.95947266 149.18115234 C-177.49427721 135.57776077 -172.93745244 122.77449773 -166.70703125 110.203125 C-166.36446289 109.49639648 -166.02189453 108.78966797 -165.66894531 108.06152344 C-143.41653527 62.45756288 -102.53762894 27.37589396 -54.97485352 10.27294922 C-37.36152257 4.25018661 -18.664102 0.11052752 0 0 Z " fill="#000000" transform="translate(277.70703125,276.796875)"/>
<path d="M0 0 C0.495 0.99 0.495 0.99 1 2 C-3.56949377 13.02883989 -10.56587876 24.3599786 -20.87890625 30.796875 C-24.5009016 32.19308848 -27.43882784 32.40345988 -31.3125 32.5 C-40.67140192 32.97712049 -47.21144622 34.38116007 -54 41 C-56.05282047 45.10564094 -55.61557115 49.55182931 -55 54 C-51.28194317 65.02279038 -43.93466959 73.42651255 -36.52783203 82.16601562 C-34.44409528 84.66729886 -32.49696847 87.25713987 -30.5625 89.875 C-26.75740491 95.01398451 -22.86431203 100.0783984 -18.9375 105.125 C-18.37168213 105.85315918 -17.80586426 106.58131836 -17.22290039 107.33154297 C-16.6633667 108.04971191 -16.10383301 108.76788086 -15.52734375 109.5078125 C-14.99428116 110.20202805 -14.46121857 110.89624359 -13.91200256 111.61149597 C-12.03977967 114.0104883 -12.03977967 114.0104883 -9.99081421 116.16160583 C-4.00019246 122.83156592 -2.50028927 128.42766028 -1.57421875 137.21484375 C-1.41508499 138.46519913 -1.25595123 139.7155545 -1.09199524 141.00379944 C-0.67665687 144.31043033 -0.28961422 147.61777965 0.08294678 150.92932129 C0.4611077 154.2375507 0.87359996 157.54121575 1.28320312 160.84570312 C1.75947788 164.69548519 2.23297554 168.54538876 2.69268799 172.39718628 C3.63560862 180.27574996 4.70731445 188.1149586 6.02229309 195.94017029 C7.00958624 201.82150244 7.72514234 207.72022256 8.35246277 213.65016174 C8.67216154 216.59413578 9.0595296 219.1785888 10 222 C10.06740865 223.56118428 10.08514456 225.1250252 10.0625 226.6875 C10.05347656 227.49574219 10.04445313 228.30398438 10.03515625 229.13671875 C10.02355469 229.75160156 10.01195312 230.36648438 10 231 C8.30969947 228.4645492 7.32411887 226.4944812 6.2668457 223.68847656 C5.93446396 222.81217087 5.60208221 221.93586517 5.2596283 221.03300476 C4.90195877 220.07851944 4.54428925 219.12403412 4.17578125 218.140625 C3.60827904 216.63958977 3.60827904 216.63958977 3.02931213 215.10823059 C2.21324082 212.9489552 1.39873955 210.78908593 0.58563232 208.62869263 C-0.6930494 205.23527276 -1.97898506 201.84468721 -3.26708984 198.45483398 C-6.97091863 188.70113203 -10.66505325 178.94490333 -14.26271057 169.15145874 C-15.56649688 165.608854 -16.88584457 162.07216161 -18.20767212 158.53625488 C-18.81108514 156.90903311 -19.40683536 155.27894566 -19.99423218 153.64587402 C-23.63464565 143.53128998 -27.65704558 136.04894254 -35 128 C-36.02299221 126.701004 -37.02926455 125.38851383 -38.01171875 124.05859375 C-38.45233643 123.4644165 -38.8929541 122.87023926 -39.34692383 122.25805664 C-40.01050903 121.3568811 -40.01050903 121.3568811 -40.6875 120.4375 C-47.90212035 110.7301911 -55.35141416 101.20765643 -62.81152344 91.68847656 C-86.34978008 61.57316809 -86.34978008 61.57316809 -84 42 C-81.24299809 32.69846442 -74.85973558 26.85731797 -66.69140625 22.0546875 C-55.96595596 16.32710617 -45.81112931 13.79239555 -33.6875 13.1875 C-20.59145844 12.28046966 -10.06177514 8.81186518 0 0 Z " fill="#FBFBFB" transform="translate(278,396)"/>
<path d="M0 0 C0.65484375 0.44730469 1.3096875 0.89460938 1.984375 1.35546875 C12.67127152 8.43478297 21.32866063 12.11728881 34.125 12.9375 C50.38626452 13.98291409 66.92195671 18.19575128 78.4375 30.4375 C83.8022307 36.96187956 85.58886 42.40964257 85.34765625 50.8203125 C83.95739475 63.5357379 77.20151003 74.70843689 69.18359375 84.36328125 C66.82329202 87.21337726 64.56362674 90.12545457 62.3125 93.0625 C61.89814697 93.60277832 61.48379395 94.14305664 61.05688477 94.69970703 C59.70337893 96.46554757 58.35156654 98.23267476 57 100 C55.97656413 101.33724083 54.95312657 102.67448037 53.9296875 104.01171875 C51.7475225 106.86368671 49.56676248 109.71672282 47.38671875 112.5703125 C45.08034983 115.58865622 42.77006455 118.60394808 40.45703125 121.6171875 C39.87800049 122.37225586 39.29896973 123.12732422 38.70239258 123.90527344 C37.60287902 125.33891423 36.50251591 126.77190404 35.40112305 128.20410156 C34.64569214 129.18975098 34.64569214 129.18975098 33.875 130.1953125 C33.43929687 130.76266113 33.00359375 131.33000977 32.5546875 131.91455078 C31.78511719 132.94684814 31.78511719 132.94684814 31 134 C30.21109375 134.99136963 29.4221875 135.98273926 28.609375 137.00415039 C25.19122784 141.82345145 23.3779634 147.21935452 21.375 152.73828125 C20.95055099 153.88092941 20.52610199 155.02357758 20.08879089 156.20085144 C18.9506796 159.26948584 17.82160173 162.34125437 16.69640732 165.41464233 C15.53246098 168.58664301 14.35653239 171.75418777 13.1809082 174.921875 C11.77400873 178.71411514 10.36755811 182.5065098 8.96589661 186.3006897 C5.11156775 196.72835282 1.17594989 207.12300591 -2.8125 217.5 C-3.35617853 218.91705103 -3.89980057 220.33412374 -4.44335938 221.7512207 C-5.62681305 224.83495446 -6.81249867 227.91782225 -8 231 C-8.33 231 -8.66 231 -9 231 C-9.17014506 225.98072085 -8.97704215 221.30697753 -8.171875 216.34765625 C-7.89851318 214.63050415 -7.89851318 214.63050415 -7.61962891 212.87866211 C-7.41515137 211.59870361 -7.21067383 210.31874512 -7 209 C-6.53904252 206.02423076 -6.08543403 203.04735992 -5.6328125 200.0703125 C-5.51215424 199.27716141 -5.39149597 198.48401031 -5.2671814 197.66682434 C-2.59151517 180.0479239 -0.06464456 162.42651452 2.140625 144.7421875 C2.2837915 143.63697754 2.42695801 142.53176758 2.57446289 141.39306641 C2.87295217 139.01302971 3.14315774 136.62935595 3.39233398 134.24365234 C4.71370069 122.83762089 4.71370069 122.83762089 9.5625 117.875 C10.47801808 116.88796737 11.39071854 115.89831483 12.30078125 114.90625 C13.19152344 113.9471875 14.08226562 112.988125 15 112 C16.44475109 110.14655355 17.86175497 108.27113955 19.25 106.375 C23.01131297 101.29590309 26.86196263 96.29519146 30.75 91.3125 C31.63884888 90.16841675 31.63884888 90.16841675 32.5456543 89.0012207 C35.54878258 85.13600461 38.56616989 81.28377928 41.61328125 77.453125 C53.2343051 63.13935837 53.2343051 63.13935837 56.48046875 45.44921875 C55.66355506 41.2849514 54.248169 39.76439915 51 37 C44.58245325 33.63569934 38.62259588 33.35588334 31.47070312 33.09179688 C24.73249776 32.63435959 20.94813542 30.5304497 16 26 C15.2575 25.33097656 14.515 24.66195313 13.75 23.97265625 C8.72732229 18.49031384 0 7.85263469 0 0 Z " fill="#FBFBFB" transform="translate(299,396)"/>
<path d="M0 0 C-2.65751077 3.10519179 -6.01623144 4.73529943 -9.5625 6.625 C-16.85688212 10.64961749 -25.97848329 15.81740611 -29 24 C-28.90752701 28.73186719 -28.90752701 28.73186719 -26.4375 32.5 C-25 34 -25 34 -24.5625 36.9375 C-25.3442773 52.41017575 -36.10038059 65.90519817 -47 76 C-55.39395661 83.27096059 -64.50993232 89.52985112 -73.9375 95.375 C-74.71295166 95.85783447 -75.48840332 96.34066895 -76.28735352 96.83813477 C-78.15218835 97.9602974 -80.07200586 98.99019975 -82 100 C-82.66 99.67 -83.32 99.34 -84 99 C-83.43152344 98.5153125 -82.86304688 98.030625 -82.27734375 97.53125 C-77.05508598 92.99773742 -72.36639233 88.35792726 -68 83 C-67.21625 82.06542969 -66.4325 81.13085938 -65.625 80.16796875 C-53.8872156 65.82981365 -45.78790486 49.86020045 -47 31 C-47.27619967 29.58023677 -47.56540961 28.16285798 -47.875 26.75 C-48.06217134 21.13485987 -45.58882312 18.14595896 -42 14 C-29.53487463 1.05368413 -17.14852473 -0.37874042 0 0 Z " fill="#F9F9F9" transform="translate(453,393)"/>
<path d="M0 0 C14.76152121 -0.59754284 27.41763724 0.983985 39.03125 10.69921875 C42.94153814 14.38582516 45.9094055 18.03483806 48 23 C47.75 26.625 47.75 26.625 47.3828125 28.66015625 C44.71322965 44.9773004 50.93574063 60.07869376 60.2890625 73.21484375 C67.30416995 82.64139438 74.83766649 91.59215588 84 99 C83.01 99.495 83.01 99.495 82 100 C80.3269043 99.26245117 80.3269043 99.26245117 78.32421875 98.04296875 C77.21542358 97.37092407 77.21542358 97.37092407 76.08422852 96.68530273 C75.29330811 96.19102783 74.5023877 95.69675293 73.6875 95.1875 C72.87659912 94.68484619 72.06569824 94.18219238 71.23022461 93.66430664 C64.11448882 89.18912927 57.466695 84.37325119 51 79 C49.55173828 77.79923828 49.55173828 77.79923828 48.07421875 76.57421875 C36.74758149 66.75153333 25.9416258 53.67615993 24.6875 38.125 C24.69969653 34.77705315 24.84921833 34.1873348 27.0625 31.4375 C29.31475264 29.0852501 29.31475264 29.0852501 29.1875 25.6875 C25.86599062 15.37333929 16.15487316 10.24977303 7.0703125 5.453125 C4.72663374 4.27132665 2.37473292 3.11782439 0 2 C0 1.34 0 0.68 0 0 Z " fill="#F9F9F9" transform="translate(124,393)"/>
<path d="M0 0 C0.33 0 0.66 0 1 0 C2.37928903 15.13812284 2.37928903 15.13812284 -0.65234375 19.23046875 C-2.19126749 20.28256249 -3.76667293 21.28248806 -5.3671875 22.23828125 C-14.53955843 28.37587663 -20.11101536 40.29383987 -25.1875 49.76171875 C-27 53 -27 53 -29 55 C-30.37830199 36.354637 -30.37830199 36.354637 -25.8125 30.8125 C-24.21968984 29.19705666 -22.6137866 27.5944887 -21 26 C-18.77685756 23.37847044 -16.64344885 20.68681483 -14.5 18 C-13.38143015 16.62400586 -12.26166001 15.2489865 -11.140625 13.875 C-7.84856605 9.82445702 -4.60827612 5.73494092 -1.390625 1.625 C-0.93171875 1.08875 -0.4728125 0.5525 0 0 Z " fill="#F5F5F5" transform="translate(365,498)"/>
<path d="M0 0 C3.65318817 3.56103568 7.03622727 7.2750351 10.3125 11.1875 C10.79033936 11.75557373 11.26817871 12.32364746 11.76049805 12.90893555 C15.31015865 17.14321176 18.83611443 21.3947208 22.20703125 25.7734375 C23.91651691 27.99853542 23.91651691 27.99853542 25.82421875 29.7265625 C29.95646258 33.94549676 30.3232024 37.62488967 30.40429688 43.33618164 C30.36144602 47.23239571 30.21179997 51.10915617 30 55 C27.39327204 51.74159005 25.48044827 48.292186 23.5 44.625 C20.52126059 39.2949217 17.24232079 34.32577728 13.5 29.5 C13.03553467 28.90050537 12.57106934 28.30101074 12.0925293 27.68334961 C9.431644 24.38650014 7.07804968 22.23355974 3.3125 20.1875 C1.39453125 18.97265625 1.39453125 18.97265625 0 17 C-0.97994892 11.39388159 -0.45200047 5.63745033 0 0 Z " fill="#F5F5F5" transform="translate(211,498)"/>
</svg>
